<?xml version="1.0" encoding="UTF-8"?>
<svg width="78px" height="26px" viewBox="0 0 78 26" version="1.1" xmlns="http://www.w3.org/2000/svg" xmlns:xlink="http://www.w3.org/1999/xlink">
    <!-- Generator: Sketch 57.1 (83088) - https://sketch.com -->
    <title>Sheet-logo2019</title>
    <desc>Created with Sketch.</desc>
    <g id="Sheet-logo2019" stroke="none" stroke-width="1" fill="none" fill-rule="evenodd">
        <path d="M34.1796875,15.4296875 L36.046875,15.03125 C36.2708345,16.088547 37.1302009,16.6171875 38.625,16.6171875 C39.3072951,16.6171875 39.8320294,16.4817722 40.1992188,16.2109375 C40.5664081,15.9401028 40.75,15.6041687 40.75,15.203125 C40.75,14.9114569 40.6666675,14.6419283 40.5,14.3945312 C40.3333325,14.1471342 39.9765652,13.9531257 39.4296875,13.8125 L37.390625,13.28125 C36.6927048,13.0989574 36.177085,12.8919282 35.84375,12.6601562 C35.510415,12.4283843 35.2434906,12.1015646 35.0429688,11.6796875 C34.8424469,11.2578104 34.7421875,10.8072941 34.7421875,10.328125 C34.7421875,9.37499523 35.0963506,8.61067996 35.8046875,8.03515625 C36.5130244,7.45963254 37.4192653,7.171875 38.5234375,7.171875 C39.4401088,7.171875 40.259111,7.37239383 40.9804688,7.7734375 C41.7018265,8.17448117 42.1614573,8.74218383 42.359375,9.4765625 L40.53125,9.9296875 C40.2499986,9.1223918 39.5937552,8.71875 38.5625,8.71875 C37.9635387,8.71875 37.506512,8.84374875 37.1914062,9.09375 C36.8763005,9.34375125 36.71875,9.66145641 36.71875,10.046875 C36.71875,10.656253 37.2135367,11.0833321 38.203125,11.328125 L40.015625,11.78125 C41.1145888,12.057293 41.8515606,12.4648411 42.2265625,13.0039062 C42.6015644,13.5429714 42.7890625,14.1380176 42.7890625,14.7890625 C42.7890625,15.8359427 42.3945352,16.6601532 41.6054688,17.2617188 C40.8164023,17.8632843 39.7942771,18.1640625 38.5390625,18.1640625 C37.4817655,18.1640625 36.5559936,17.9427105 35.7617188,17.5 C34.9674439,17.0572895 34.4401055,16.3671922 34.1796875,15.4296875 Z M50.8671875,18 L49.0859375,18 L49.0859375,12.8359375 C49.0859375,12.278643 48.9674491,11.8867199 48.7304688,11.6601562 C48.4934884,11.4335926 48.2161474,11.3203125 47.8984375,11.3203125 C47.3932266,11.3203125 46.9687517,11.5208313 46.625,11.921875 C46.2812483,12.3229187 46.109375,12.9843704 46.109375,13.90625 L46.109375,18 L44.328125,18 L44.328125,7.3359375 L46.109375,7.3359375 L46.109375,11.4921875 C46.5520855,10.3567652 47.328125,9.7890625 48.4375,9.7890625 C50.0572998,9.7890625 50.8671875,10.7187407 50.8671875,12.578125 L50.8671875,18 Z M58.0234375,15.484375 L59.6328125,15.703125 C59.4244781,16.4166702 59.0182322,17.005206 58.4140625,17.46875 C57.8098928,17.932294 57.0520879,18.1640625 56.140625,18.1640625 C55.0468695,18.1640625 54.16667,17.7968787 53.5,17.0625 C52.83333,16.3281213 52.5,15.3333396 52.5,14.078125 C52.5,12.8854107 52.8359341,11.8984414 53.5078125,11.1171875 C54.1796909,10.3359336 55.0911401,9.9453125 56.2421875,9.9453125 C57.3671931,9.9453125 58.2369761,10.3307253 58.8515625,11.1015625 C59.4661489,11.8723997 59.7734375,12.8619731 59.7734375,14.0703125 L59.765625,14.2734375 L54.3515625,14.2734375 C54.3515625,14.8098985 54.4023432,15.2395817 54.5039062,15.5625 C54.6054693,15.8854183 54.8072902,16.1666655 55.109375,16.40625 C55.4114598,16.6458345 55.7890602,16.765625 56.2421875,16.765625 C57.1224002,16.765625 57.7161443,16.3385459 58.0234375,15.484375 Z M57.9140625,13.125 C57.9088541,12.5572888 57.7382829,12.0937518 57.4023438,11.734375 C57.0664046,11.3749982 56.6510441,11.1953125 56.15625,11.1953125 C55.6666642,11.1953125 55.2578141,11.3632796 54.9296875,11.6992188 C54.6015609,12.0351579 54.4088545,12.5104136 54.3515625,13.125 L57.9140625,13.125 Z M66.4140625,15.484375 L68.0234375,15.703125 C67.8151031,16.4166702 67.4088572,17.005206 66.8046875,17.46875 C66.2005178,17.932294 65.4427129,18.1640625 64.53125,18.1640625 C63.4374945,18.1640625 62.557295,17.7968787 61.890625,17.0625 C61.223955,16.3281213 60.890625,15.3333396 60.890625,14.078125 C60.890625,12.8854107 61.2265591,11.8984414 61.8984375,11.1171875 C62.5703159,10.3359336 63.4817651,9.9453125 64.6328125,9.9453125 C65.7578181,9.9453125 66.6276011,10.3307253 67.2421875,11.1015625 C67.8567739,11.8723997 68.1640625,12.8619731 68.1640625,14.0703125 L68.15625,14.2734375 L62.7421875,14.2734375 C62.7421875,14.8098985 62.7929682,15.2395817 62.8945312,15.5625 C62.9960943,15.8854183 63.1979152,16.1666655 63.5,16.40625 C63.8020848,16.6458345 64.1796852,16.765625 64.6328125,16.765625 C65.5130252,16.765625 66.1067693,16.3385459 66.4140625,15.484375 Z M66.3046875,13.125 C66.2994791,12.5572888 66.1289079,12.0937518 65.7929688,11.734375 C65.4570296,11.3749982 65.0416691,11.1953125 64.546875,11.1953125 C64.0572892,11.1953125 63.6484391,11.3632796 63.3203125,11.6992188 C62.9921859,12.0351579 62.7994795,12.5104136 62.7421875,13.125 L66.3046875,13.125 Z M73.4453125,16.609375 L73.4453125,18 C72.9140598,18.1145839 72.5026056,18.171875 72.2109375,18.171875 C71.7317684,18.171875 71.3203142,18.0768239 70.9765625,17.8867188 C70.6328108,17.6966136 70.3815112,17.4361996 70.2226562,17.1054688 C70.0638013,16.7747379 69.984375,16.2656284 69.984375,15.578125 L69.984375,11.4921875 L69,11.4921875 L69,10.109375 L70.0859375,10.109375 L70.25,8.0546875 L71.7109375,7.921875 L71.7109375,10.109375 L73.296875,10.109375 L73.296875,11.4921875 L71.7109375,11.4921875 L71.7109375,15.34375 C71.7109375,15.8385441 71.8007804,16.1757804 71.9804688,16.3554688 C72.1601571,16.5351571 72.5,16.625 73,16.625 C73.1406257,16.625 73.2890617,16.6197917 73.4453125,16.609375 Z" id="Sheet" fill="#000000" fill-rule="nonzero"></path>
        <g id="Sheet-white" transform="translate(4.000000, 2.000000)" fill-rule="nonzero">
            <path d="M7.65760649,19.3547226 C7.28043037,19.3547226 6.97310168,19.047394 6.97310168,18.6702178 L6.97310168,3.37130258 C6.97310168,2.99412647 7.28043037,2.68679778 7.65760649,2.68679778 C8.03478261,2.68679778 8.3421113,2.99412647 8.3421113,3.37130258 L8.3421113,18.6702178 C8.3421113,19.0497222 8.03711086,19.3547226 7.65760649,19.3547226 Z" id="Path" fill="#36A55D"></path>
            <path d="M19.5177,8.08367581 L3.4993562,8.08367581 C3.12218009,8.08367581 2.8148514,7.77634712 2.8148514,7.399171 C2.8148514,7.02199488 3.12218009,6.7146662 3.4993562,6.7146662 L19.5200282,6.7146662 C19.8972043,6.7146662 20.204533,7.02199488 20.204533,7.399171 C20.204533,7.77634712 19.8972043,8.08367581 19.5177,8.08367581 Z" id="Path" fill="#36A55D"></path>
            <path d="M13.5923097,19.5339977 L2.08145339,19.5339977 C0.933627304,19.5339977 0,18.6236529 0,17.506094 L0,2.03023194 C0,0.912673075 0.933627304,0.00232824764 2.08145339,0.00232824764 L18.1766293,0.00232824764 C19.3244554,0.00232824764 20.2580827,0.912673075 20.2580827,2.03023194 L20.2580827,13.0917365 C20.2580827,13.4689126 19.950754,13.7762413 19.5735779,13.7762413 C19.1964018,13.7762413 18.8890731,13.4689126 18.8890731,13.0917365 L18.8890731,2.03023194 C18.8890731,1.66702531 18.5701032,1.37133786 18.1789576,1.37133786 L2.08145339,1.37133786 C1.69030779,1.37133786 1.37133786,1.66702531 1.37133786,2.03023194 L1.37133786,17.506094 C1.37133786,17.8693006 1.69030779,18.1649881 2.08145339,18.1649881 L13.594638,18.1649881 C13.9718141,18.1649881 14.2791428,18.4723168 14.2791428,18.8494929 C14.2768145,19.2289973 13.9718141,19.5339977 13.5923097,19.5339977 Z" id="Path" fill="#36A55D"></path>
            <path d="M17.4013229,22.9541935 C17.3407884,22.9541935 17.280254,22.9472087 17.2220478,22.930911 C16.989223,22.8680483 16.8076197,22.686445 16.7424288,22.4536202 L14.6516624,14.9450216 C14.5864715,14.7098686 14.6516624,14.4560896 14.8216245,14.281471 C14.9939148,14.1068525 15.2453656,14.037005 15.4805186,14.0975395 L23.2801482,16.1091454 C23.5199577,16.1720081 23.7085457,16.3582679 23.7714084,16.5980774 C23.8342711,16.8378869 23.7620954,17.0939942 23.5851486,17.2662845 L17.8762854,22.7632772 C17.7459035,22.8866743 17.5759414,22.9541935 17.4013229,22.9541935 Z M16.2884205,15.7203281 L17.7528883,20.9821677 L21.7528177,17.1312461 L16.2884205,15.7203281 Z" id="Shape" fill="#36A55D"></path>
            <rect id="Rectangle" fill="#089949" x="6.97310168" y="6.7146662" width="1.36900961" height="1.36900961"></rect>
        </g>
    </g>
</svg>